<svg width="32" height="32" viewBox="0 0 32 32" fill="none" xmlns="http://www.w3.org/2000/svg">
<g id="Behance">
<g id="Behance_2">
<rect id="Rectangle" width="32" height="32" rx="16" fill="#0057FF"/>
<path id="Vector" d="M12.2883 9.29761C12.9041 9.29761 13.4725 9.34497 13.9935 9.48707C14.5145 9.5818 14.9408 9.77127 15.3197 10.0081C15.6987 10.2449 15.9829 10.5765 16.1723 11.0028C16.3618 11.4291 16.4565 11.9501 16.4565 12.5185C16.4565 13.1816 16.3144 13.75 15.9829 14.1763C15.6987 14.6026 15.225 14.9815 14.6566 15.2657C15.4618 15.5026 16.0776 15.9289 16.4565 16.4973C16.8355 17.0656 17.0723 17.7761 17.0723 18.5814C17.0723 19.2445 16.9302 19.8129 16.6934 20.2865C16.4565 20.7602 16.0776 21.1865 15.6513 21.4707C15.225 21.7549 14.704 21.9917 14.1356 22.1338C13.5672 22.2759 12.9988 22.3707 12.4304 22.3707H6.08334V9.29761H12.2883ZM11.9094 14.6026C12.4304 14.6026 12.8567 14.4605 13.1883 14.2237C13.5198 13.9869 13.6619 13.5606 13.6619 13.0395C13.6619 12.7553 13.6146 12.4711 13.5198 12.2817C13.4251 12.0922 13.283 11.9501 13.0935 11.808C12.9041 11.7133 12.7146 11.6185 12.4778 11.5712C12.2409 11.5238 12.0041 11.5238 11.7199 11.5238H8.97268V14.6026H11.9094ZM12.0515 20.1918C12.3357 20.1918 12.6199 20.1444 12.8567 20.0971C13.0935 20.0497 13.3304 19.955 13.5198 19.8129C13.7093 19.6708 13.8514 19.5287 13.9935 19.2919C14.0882 19.055 14.1829 18.7708 14.1829 18.4393C14.1829 17.7761 13.9935 17.3025 13.6146 16.9709C13.2356 16.6867 12.7146 16.5446 12.0988 16.5446H8.97268V20.1918H12.0515ZM21.1931 20.1444C21.5721 20.5234 22.1405 20.7128 22.8983 20.7128C23.4193 20.7128 23.893 20.5707 24.2719 20.3339C24.6509 20.0497 24.8877 19.7655 24.9824 19.4813H27.3034C26.9244 20.6181 26.356 21.4233 25.5982 21.9444C24.8403 22.418 23.9404 22.7022 22.8509 22.7022C22.0931 22.7022 21.43 22.5601 20.8142 22.3233C20.1984 22.0865 19.7248 21.7549 19.2985 21.2812C18.8722 20.8549 18.5406 20.3339 18.3512 19.7182C18.1143 19.1024 18.0196 18.4393 18.0196 17.6814C18.0196 16.9709 18.1143 16.3078 18.3512 15.692C18.588 15.0763 18.9196 14.5552 19.3459 14.0816C19.7721 13.6553 20.2932 13.2764 20.8616 13.0395C21.4773 12.8027 22.0931 12.6606 22.8509 12.6606C23.6562 12.6606 24.3667 12.8027 24.9824 13.1343C25.5982 13.4658 26.0718 13.8448 26.4508 14.4131C26.8297 14.9342 27.1139 15.5499 27.3034 16.2131C27.3981 16.8762 27.4455 17.5393 27.3981 18.2972H20.53C20.53 19.055 20.8142 19.7655 21.1931 20.1444ZM24.1772 15.171C23.8456 14.8394 23.3246 14.65 22.7088 14.65C22.2826 14.65 21.951 14.7447 21.6668 14.8868C21.3826 15.0289 21.1931 15.2184 21.0037 15.4078C20.8142 15.5973 20.7195 15.8341 20.6721 16.071C20.6247 16.3078 20.5774 16.4973 20.5774 16.6867H24.8403C24.7456 15.9762 24.5088 15.5026 24.1772 15.171ZM20.009 10.1976H25.314V11.4764H20.009V10.1976Z" fill="white"/>
</g>
</g>
</svg>
